<svg xmlns="http://www.w3.org/2000/svg" width="49" height="49" style=""><rect id="backgroundrect" width="100%" height="100%" x="0" y="0" fill="none" stroke="none"/>
    
<g class="currentLayer" style=""><title>Layer 1</title><path fill="#ff7665" fill-rule="evenodd" d="M24.314 48.82C10.886 48.82 0 37.893 0 24.41 0 10.93 10.886 0 24.314 0s24.314 10.929 24.314 24.41c0 13.482-10.886 24.41-24.314 24.41zm12.023-16.36l-8.65-16.375c-.157-.297-.639-.297-.796 0l-3.206 6.07-1.765-3.34c-.157-.297-.639-.297-.795 0L13.916 32.46a.457.457 0 0 0 .011.448.45.45 0 0 0 .386.22H35.94a.45.45 0 0 0 .387-.22.46.46 0 0 0 .011-.449zM27.29 17.264l2.613 4.947h-1.171a.446.446 0 0 0-.319.133l-1.36 1.373-.622-1.255a.45.45 0 0 0-.403-.251h-1.351l2.613-4.947zm-5.767 2.73l2.613 4.946h-.81a.447.447 0 0 0-.32.133l-.67.678-1.512-.763a.451.451 0 0 0-.202-.048h-1.712l2.613-4.947zm-6.458 12.224l3.365-6.368h2.086l1.707.862a.448.448 0 0 0 .52-.086l.769-.776h1.105l3.364 6.368H15.064zm13.938 0l-4.806-9.097h1.553l.777 1.567a.452.452 0 0 0 .403.252.448.448 0 0 0 .318-.133l1.67-1.686h1.465l4.806 9.097h-6.186zM17.918 18.573c1.739 0 3.154-1.428 3.154-3.184 0-1.756-1.415-3.184-3.154-3.184-1.74 0-3.154 1.428-3.154 3.184 0 1.756 1.415 3.184 3.154 3.184zm0-5.458c1.242 0 2.252 1.02 2.252 2.274s-1.01 2.274-2.252 2.274c-1.242 0-2.253-1.02-2.253-2.274s1.01-2.274 2.253-2.274z" id="svg_1" class="selected" fill-opacity="1"/></g></svg>