<svg xmlns="http://www.w3.org/2000/svg" width="49" height="49" viewBox="0 0 49 49">
    <path fill="#343F46" fill-rule="evenodd" d="M24.314 48.82c13.428 0 24.314-10.928 24.314-24.41C48.628 10.93 37.742 0 24.314 0S0 10.929 0 24.41c0 13.482 10.886 24.41 24.314 24.41zm-5.182-17.514H30.18V20.214H19.132v11.092zm3.314-19.41c.312 0 .553.24.553.554 0 .313-.24.555-.553.555a.545.545 0 0 1-.552-.555c0-.313.24-.555.552-.555zm11.437 5.38a.556.556 0 0 0-.458-.953.553.553 0 0 0-.319.165L30.5 19.105H18.813l-1.658-1.664h13.301a.554.554 0 1 0 0-1.109H19.132v-1.1l2.21-1.552c.294.267.68.434 1.104.434.91 0 1.658-.752 1.658-1.664 0-.913-.749-1.664-1.658-1.664a1.669 1.669 0 0 0-1.64 1.907l-2.546 1.793a.556.556 0 0 0-.233.46v1.386h-2.261a.554.554 0 0 0-.337.945l2.598 2.608v11.421h-.88a.554.554 0 0 0-.5.555v2.773a.553.553 0 1 0 1.105 0l-.001-2.219h13.81v1.664H19.408a.553.553 0 0 0-.015 1.11h12.72a.554.554 0 0 0 .553-.555V31.86a.553.553 0 0 0-.553-.555h-.828V19.885l2.598-2.608z"/>
</svg>
