<svg xmlns="http://www.w3.org/2000/svg" width="18" height="18" viewBox="0 0 18 18">
    <path fill="#FF7665" fill-rule="nonzero" d="M17.514 8.757A8.757 8.757 0 1 1 0 8.757a8.757 8.757 0 0 1 17.514 0zm-6.2-3.036c-.572-.378-1.349-.726-2.227-.797V3.892h-.613v1.042c-1.328.102-2.34.879-2.34 2.258 0 1.113.674 1.583 2.054 1.961l.378.102v1.758c-.981-.103-1.89-.644-2.105-.869l-.623 1.216c.725.521 1.686.848 2.636.92v1.133h.613V12.29c1.338-.051 2.482-.654 2.482-2.146 0-1.328-.899-1.777-2.33-2.145l-.255-.061V6.17c.787.082 1.533.51 1.707.695l.623-1.144zm-1.247 4.566c0 .47-.378.726-1.083.746V9.378c.675.215 1.083.44 1.083.91zm-2.482-3.32c0-.48.327-.766.98-.807v1.655c-.653-.194-.98-.388-.98-.848z"/>
</svg>
