<svg xmlns="http://www.w3.org/2000/svg" width="49" height="49" viewBox="0 0 49 49">
    <path fill="#FF7665" fill-rule="evenodd" d="M24.314 48.82c13.428 0 24.314-10.928 24.314-24.41C48.628 10.93 37.742 0 24.314 0S0 10.929 0 24.41c0 13.482 10.886 24.41 24.314 24.41zM13.289 21.867c.059-.015.147-.015.236-.015.767 0 1.985.183 3.314.73.015 1.354.244 2.882.864 4.449 1.07 2.669 2.864 4.463 4.318 5.467-1.322-.25-3.492-1.004-5.588-3.163-1.772-1.81-2.547-3.703-2.879-4.958-.302-1.179-.31-2.076-.265-2.51zm4.391.153c.067-1.658.458-2.936.724-3.476.413.137 1.203.487 2.133 1.24.258.205.554.456.841.76a12.675 12.675 0 0 0-.76 3.415c-.03.311-.037.638-.037.973 0 .053 0 .106.008.167.044 3.011 1.151 5.422 2.185 6.874-1.33-.844-3.211-2.532-4.296-5.254a11.185 11.185 0 0 1-.79-3.749 13.676 13.676 0 0 1-.008-.95zm3.728 2.737c.022-1.308.266-2.486.613-3.513.11-.304.236-.608.354-.882.672-1.544 1.535-2.608 1.978-3.019.34.281.938.928 1.528 1.977.162.32.362.692.524 1.11.118.274.229.578.34.89.265.912.48 1.977.502 3.232.014.121.014.243.014.38 0 .312-.014.631-.037.92-.177 2.661-1.122 4.54-1.933 5.627.191-.776.332-1.749.31-2.874a14.48 14.48 0 0 0-.14-1.612c-.134-.791-.333-1.62-.665-2.51-.044-.121-.089-.258-.148-.388-.08-.235-.184-.456-.273-.669-.11.22-.214.434-.295.67-.066.129-.103.266-.155.395a12.347 12.347 0 0 0-.686 2.905c-.074.7-.089 1.36-.067 1.977.044.798.14 1.52.288 2.121-.775-1.102-1.727-2.965-1.986-5.353a10.957 10.957 0 0 1-.066-1.21v-.174zm8.976-6.16c.199.38.524 1.225.664 2.426.03.251.059.54.066.86a6.58 6.58 0 0 1 0 .935c-.044 1.118-.28 2.449-.878 3.931-1.196 2.928-3.012 4.51-4.296 5.285 1.026-1.407 2.155-3.825 2.155-7.102v-.015c0-.38-.03-.753-.051-1.11a12.13 12.13 0 0 0-.672-3.164c1.218-1.194 2.436-1.855 3.012-2.045zm1.564 3.864c1.218-.449 2.303-.609 3.005-.609.096 0 .184 0 .243.015.06.434.03 1.331-.28 2.502-.332 1.255-1.1 3.156-2.864 4.966-1.853 1.908-3.772 2.714-5.093 3.041 1.373-.973 2.967-2.661 4.052-5.3.672-1.688.923-3.254.937-4.615zm-7.484 8.836c-.022.129-.067.266-.096.38-.089-.312-.177-.7-.244-1.103a12.015 12.015 0 0 1-.125-1.36 11.118 11.118 0 0 1 .376-3.362c.244.935.377 1.81.399 2.585.022 1.156-.11 2.122-.31 2.86zm-1.225 2.174c.228 0 .45-.007.62-.038.14.038.265.061.354.061a.348.348 0 0 0 .133-.023.42.42 0 0 0 .155.023c.074 0 .184-.007.317-.038.133.008.266.008.42.008 1.625 0 4.666-.7 7.404-3.529 3.78-3.878 3.595-8.38 3.219-8.79-.089-.084-.414-.152-.908-.152-.724 0-1.801.144-3.02.57-.14-2.258-.907-3.749-1.195-3.878-.03 0-.074-.015-.11-.015-.488 0-2.023.677-3.58 2.122-.99-2.236-2.363-3.422-2.702-3.422-.332 0-1.632 1.24-2.606 3.346-1.557-1.49-3.085-2.084-3.595-2.084-.051 0-.088.015-.118.023-.302.121-1.01 1.741-1.166 4.015-1.336-.502-2.546-.677-3.336-.677-.48 0-.805.068-.893.16-.384.41-.561 4.904 3.203 8.79 2.753 2.829 5.787 3.528 7.404 3.528z"/>
</svg>
