<svg width="49" height="49" xmlns="http://www.w3.org/2000/svg">
 <g>
  <title>background</title>
  <rect x="-1" y="-1" width="51" height="51" id="canvas_background" fill="none"/>
 </g>

 <g>
  <title>Layer 1</title>
  <path fill="#343f46" fill-rule="evenodd" d="m24.314,48.82c13.428,0 24.314,-10.928 24.314,-24.41c0,-13.48 -10.886,-24.41 -24.314,-24.41s-24.314,10.929 -24.314,24.41c0,13.482 10.886,24.41 24.314,24.41zm-11.025,-26.953c0.059,-0.015 0.147,-0.015 0.236,-0.015c0.767,0 1.985,0.183 3.314,0.73c0.015,1.354 0.244,2.882 0.864,4.449c1.07,2.669 2.864,4.463 4.318,5.467c-1.322,-0.25 -3.492,-1.004 -5.588,-3.163c-1.772,-1.81 -2.547,-3.703 -2.879,-4.958c-0.302,-1.179 -0.31,-2.076 -0.265,-2.51zm4.391,0.153c0.067,-1.658 0.458,-2.936 0.724,-3.476c0.413,0.137 1.203,0.487 2.133,1.24c0.258,0.205 0.554,0.456 0.841,0.76a12.675,12.675 0 0 0 -0.76,3.415c-0.03,0.311 -0.037,0.638 -0.037,0.973c0,0.053 0,0.106 0.008,0.167c0.044,3.011 1.151,5.422 2.185,6.874c-1.33,-0.844 -3.211,-2.532 -4.296,-5.254a11.185,11.185 0 0 1 -0.79,-3.749a13.676,13.676 0 0 1 -0.008,-0.95zm3.728,2.737c0.022,-1.308 0.266,-2.486 0.613,-3.513c0.11,-0.304 0.236,-0.608 0.354,-0.882c0.672,-1.544 1.535,-2.608 1.978,-3.019c0.34,0.281 0.938,0.928 1.528,1.977c0.162,0.32 0.362,0.692 0.524,1.11c0.118,0.274 0.229,0.578 0.34,0.89c0.265,0.912 0.48,1.977 0.502,3.232c0.014,0.121 0.014,0.243 0.014,0.38c0,0.312 -0.014,0.631 -0.037,0.92c-0.177,2.661 -1.122,4.54 -1.933,5.627c0.191,-0.776 0.332,-1.749 0.31,-2.874a14.48,14.48 0 0 0 -0.14,-1.612c-0.134,-0.791 -0.333,-1.62 -0.665,-2.51c-0.044,-0.121 -0.089,-0.258 -0.148,-0.388c-0.08,-0.235 -0.184,-0.456 -0.273,-0.669c-0.11,0.22 -0.214,0.434 -0.295,0.67c-0.066,0.129 -0.103,0.266 -0.155,0.395a12.347,12.347 0 0 0 -0.686,2.905c-0.074,0.7 -0.089,1.36 -0.067,1.977c0.044,0.798 0.14,1.52 0.288,2.121c-0.775,-1.102 -1.727,-2.965 -1.986,-5.353a10.957,10.957 0 0 1 -0.066,-1.21l0,-0.174zm8.976,-6.16c0.199,0.38 0.524,1.225 0.664,2.426c0.03,0.251 0.059,0.54 0.066,0.86a6.58,6.58 0 0 1 0,0.935c-0.044,1.118 -0.28,2.449 -0.878,3.931c-1.196,2.928 -3.012,4.51 -4.296,5.285c1.026,-1.407 2.155,-3.825 2.155,-7.102l0,-0.015c0,-0.38 -0.03,-0.753 -0.051,-1.11a12.13,12.13 0 0 0 -0.672,-3.164c1.218,-1.194 2.436,-1.855 3.012,-2.045l0,-0.001zm1.564,3.864c1.218,-0.449 2.303,-0.609 3.005,-0.609c0.096,0 0.184,0 0.243,0.015c0.06,0.434 0.03,1.331 -0.28,2.502c-0.332,1.255 -1.1,3.156 -2.864,4.966c-1.853,1.908 -3.772,2.714 -5.093,3.041c1.373,-0.973 2.967,-2.661 4.052,-5.3c0.672,-1.688 0.923,-3.254 0.937,-4.615zm-7.484,8.836c-0.022,0.129 -0.067,0.266 -0.096,0.38c-0.089,-0.312 -0.177,-0.7 -0.244,-1.103a12.015,12.015 0 0 1 -0.125,-1.36a11.118,11.118 0 0 1 0.376,-3.362c0.244,0.935 0.377,1.81 0.399,2.585c0.022,1.156 -0.11,2.122 -0.31,2.86zm-1.225,2.174c0.228,0 0.45,-0.007 0.62,-0.038c0.14,0.038 0.265,0.061 0.354,0.061a0.348,0.348 0 0 0 0.133,-0.023a0.42,0.42 0 0 0 0.155,0.023c0.074,0 0.184,-0.007 0.317,-0.038c0.133,0.008 0.266,0.008 0.42,0.008c1.625,0 4.666,-0.7 7.404,-3.529c3.78,-3.878 3.595,-8.38 3.219,-8.79c-0.089,-0.084 -0.414,-0.152 -0.908,-0.152c-0.724,0 -1.801,0.144 -3.02,0.57c-0.14,-2.258 -0.907,-3.749 -1.195,-3.878c-0.03,0 -0.074,-0.015 -0.11,-0.015c-0.488,0 -2.023,0.677 -3.58,2.122c-0.99,-2.236 -2.363,-3.422 -2.702,-3.422c-0.332,0 -1.632,1.24 -2.606,3.346c-1.557,-1.49 -3.085,-2.084 -3.595,-2.084c-0.051,0 -0.088,0.015 -0.118,0.023c-0.302,0.121 -1.01,1.741 -1.166,4.015c-1.336,-0.502 -2.546,-0.677 -3.336,-0.677c-0.48,0 -0.805,0.068 -0.893,0.16c-0.384,0.41 -0.561,4.904 3.203,8.79c2.753,2.829 5.787,3.528 7.404,3.528z" id="svg_1"/>
 </g>
</svg>