<svg xmlns="http://www.w3.org/2000/svg" width="49" height="49" viewBox="0 0 49 49">
    <path fill="#343F46" fill-rule="nonzero" d="M24.314 48.821c13.429 0 24.315-10.929 24.315-24.41C48.629 10.929 37.743 0 24.314 0 10.886 0 0 10.929 0 24.41c0 13.482 10.886 24.411 24.314 24.411zm9.718-31.792c1.405 0 2.544 1.153 2.544 2.573v11.755c0 1.42-1.139 2.573-2.544 2.573H14.505c-1.405 0-2.544-1.154-2.544-2.573V19.602c0-1.42 1.14-2.573 2.544-2.573h.623v-1.45a.7.7 0 0 1 .697-.687h4.75a.71.71 0 0 1 .697.703v1.434h12.76zm-18.038.872h-1.489a1.69 1.69 0 0 0-1.677 1.701v11.755c0 .939.752 1.7 1.677 1.7h19.527a1.69 1.69 0 0 0 1.678-1.7V19.602a1.69 1.69 0 0 0-1.678-1.701H20.405v-2.137h-4.411V17.9zm-.433-.872h-.433v.436l.433-.436zm8.708 5.076v.872c-1.36 0-2.47 1.123-2.47 2.502 0 1.38 1.11 2.503 2.47 2.503s2.47-1.123 2.47-2.503c0-1.38-1.11-2.502-2.47-2.502v-.872c1.84 0 3.336 1.514 3.336 3.374s-1.497 3.375-3.336 3.375c-1.84 0-3.336-1.515-3.336-3.375s1.496-3.374 3.336-3.374zm0-2.672v.872c-2.818 0-5.108 2.32-5.108 5.174 0 2.855 2.29 5.174 5.108 5.174 2.817 0 5.108-2.319 5.108-5.174 0-2.855-2.29-5.174-5.108-5.174v-.872c3.297 0 5.974 2.71 5.974 6.046 0 3.336-2.677 6.046-5.974 6.046s-5.975-2.71-5.975-6.046c0-3.335 2.678-6.046 5.975-6.046zm8.444 0v.872a.632.632 0 0 0-.622.633c0 .347.282.632.622.632s.622-.285.622-.632a.632.632 0 0 0-.622-.633v-.872a1.5 1.5 0 0 1 1.489 1.505 1.5 1.5 0 0 1-1.49 1.504 1.5 1.5 0 0 1-1.488-1.504 1.5 1.5 0 0 1 1.489-1.505z"/>
</svg>
