<svg width="49" height="49" xmlns="http://www.w3.org/2000/svg">
 <g>
  <title>background</title>
  <rect x="-1" y="-1" width="51" height="51" id="canvas_background" fill="none"/>
 </g>

 <g>
  <title>Layer 1</title>
  <path fill="#ff7665" fill-rule="nonzero" d="m24.314,48.821c13.429,0 24.315,-10.929 24.315,-24.41c0,-13.482 -10.886,-24.411 -24.315,-24.411c-13.428,0 -24.314,10.929 -24.314,24.41c0,13.482 10.886,24.411 24.314,24.411zm9.718,-31.792c1.405,0 2.544,1.153 2.544,2.573l0,11.755c0,1.42 -1.139,2.573 -2.544,2.573l-19.527,0c-1.405,0 -2.544,-1.154 -2.544,-2.573l0,-11.755c0,-1.42 1.14,-2.573 2.544,-2.573l0.623,0l0,-1.45a0.7,0.7 0 0 1 0.697,-0.687l4.75,0a0.71,0.71 0 0 1 0.697,0.703l0,1.434l12.76,0zm-18.038,0.872l-1.489,0a1.69,1.69 0 0 0 -1.677,1.701l0,11.755c0,0.939 0.752,1.7 1.677,1.7l19.527,0a1.69,1.69 0 0 0 1.678,-1.7l0,-11.755a1.69,1.69 0 0 0 -1.678,-1.701l-13.627,0l0,-2.137l-4.411,0l0,2.136l0,0.001zm-0.433,-0.872l-0.433,0l0,0.436l0.433,-0.436zm8.708,5.076l0,0.872c-1.36,0 -2.47,1.123 -2.47,2.502c0,1.38 1.11,2.503 2.47,2.503s2.47,-1.123 2.47,-2.503c0,-1.38 -1.11,-2.502 -2.47,-2.502l0,-0.872c1.84,0 3.336,1.514 3.336,3.374s-1.497,3.375 -3.336,3.375c-1.84,0 -3.336,-1.515 -3.336,-3.375s1.496,-3.374 3.336,-3.374zm0,-2.672l0,0.872c-2.818,0 -5.108,2.32 -5.108,5.174c0,2.855 2.29,5.174 5.108,5.174c2.817,0 5.108,-2.319 5.108,-5.174c0,-2.855 -2.29,-5.174 -5.108,-5.174l0,-0.872c3.297,0 5.974,2.71 5.974,6.046c0,3.336 -2.677,6.046 -5.974,6.046s-5.975,-2.71 -5.975,-6.046c0,-3.335 2.678,-6.046 5.975,-6.046zm8.444,0l0,0.872a0.632,0.632 0 0 0 -0.622,0.633c0,0.347 0.282,0.632 0.622,0.632s0.622,-0.285 0.622,-0.632a0.632,0.632 0 0 0 -0.622,-0.633l0,-0.872a1.5,1.5 0 0 1 1.489,1.505a1.5,1.5 0 0 1 -1.49,1.504a1.5,1.5 0 0 1 -1.488,-1.504a1.5,1.5 0 0 1 1.489,-1.505z" id="svg_1"/>
 </g>
</svg>