<svg xmlns="http://www.w3.org/2000/svg" width="18" height="18" viewBox="0 0 18 18">
    <path fill="#FF7665" fill-rule="evenodd" d="M9.143 9c-1.234 0-2.287-.437-3.16-1.31-.873-.872-1.31-1.926-1.31-3.16 0-1.233.437-2.286 1.31-3.16C6.856.499 7.909.062 9.143.062c1.233 0 2.287.437 3.16 1.31.873.873 1.31 1.926 1.31 3.16 0 1.233-.437 2.287-1.31 3.16C11.43 8.563 10.377 9 9.143 9zm8.153 4.72c.027.391.04.793.04 1.204 0 .931-.282 1.667-.849 2.206-.567.539-1.32.809-2.258.809H4.056c-.938 0-1.691-.27-2.258-.81-.566-.538-.85-1.274-.85-2.205 0-.411.014-.812.041-1.204.028-.392.082-.815.163-1.27.082-.453.185-.874.309-1.262s.29-.766.5-1.135c.21-.368.45-.683.722-.943.271-.26.603-.467.995-.622a3.496 3.496 0 0 1 1.298-.233c.07 0 .232.083.489.25.256.167.545.353.867.559.322.205.74.392 1.257.558.516.167 1.033.25 1.553.25s1.038-.083 1.554-.25c.516-.166.935-.353 1.257-.558.322-.206.611-.392.867-.559.256-.167.42-.25.489-.25.473 0 .906.078 1.298.233.392.155.723.362.995.622s.512.575.722.943c.21.369.376.747.5 1.135s.227.809.309 1.263c.081.454.135.877.163 1.269z"/>
</svg>
