<svg xmlns="http://www.w3.org/2000/svg" width="49" height="49" viewBox="0 0 49 49">
    <path fill="#343F46" fill-rule="evenodd" d="M24.5 49C38.031 49 49 38.031 49 24.5S38.031 0 24.5 0 0 10.969 0 24.5 10.969 49 24.5 49zm-5.834-33.709c2.778 0 4.29 1.518 5.244 3.12a.684.684 0 0 0 1.18 0c.955-1.602 2.466-3.12 5.244-3.12 2.028 0 5.147 1.834 5.147 6.22 0 2.22-1.49 4.601-3.7 6.801-2.11 2.102-4.824 3.989-7.281 5.496-2.457-1.507-5.17-3.394-7.282-5.496-2.21-2.2-3.7-4.582-3.7-6.802 0-4.385 3.12-6.219 5.148-6.219m.184-1.047c-2.756 0-6.315 2.468-6.315 7.362 0 2.731 1.715 5.286 3.978 7.54 2.263 2.253 5.123 4.228 7.644 5.75a.66.66 0 0 0 .686 0c2.52-1.522 5.381-3.497 7.644-5.75 2.263-2.254 3.978-4.809 3.978-7.54 0-4.894-3.559-7.362-6.315-7.362-2.726 0-4.509 1.38-5.65 2.897-1.141-1.518-2.924-2.897-5.65-2.897"/>
</svg>
