<svg xmlns="http://www.w3.org/2000/svg" width="53" height="53" viewBox="0 0 53 53">
    <path fill="#FF7665" fill-rule="evenodd" d="M24.604 6.042c1.013.916-.2 2.642-.498 4.04-1.67 7.848.704 17.002.67 24.918-1.172-.586-1.278-1.615-1.793-3.067-1.615-4.532-5.15-11.441-3.598-18.25.707-3.102 1.852-4.431 3.827-6.663.129 0 .923-.758 1.235-.967-5.888.454-11.296 3.832-12.232 10.201-1.78 12.119 7.97 12.728 11.04 21.746 1.885-.444 5.216.626 6.958-1.236.782-.836 1.303-2.32 2.16-3.46 3.21-4.268 10.546-9.498 8.157-17.544-1.542-5.197-6.02-8.336-10.98-9.375 6.595 3.621 4.657 16.266 1.842 22.777-.576 1.331-1.269 2.66-1.693 3.941-.424 1.277-.126 2.89-1.699 2.897.995-9.38 2.76-20.502.292-29.832a18.179 18.179 0 0 0-3.688-.126zm4.352 35.306c-.173-.943-.242-1.884-.313-2.193-2.938-.397-4.699.106-5.06 0-.928.61-.388 3.866-1.583 4.21 1.033.912-.13 4.037 1.214 4.635h5.575c1.215-.645.176-3.564 1.211-4.391-.222-.095-.404-.315-.555-.609H24c.237-2.91 3.314-.972 4.319-2 .224.103.44.216.637.348zm22.149-24.425C52.368 20.09 53 23.32 53 26.608c0 3.47-.67 6.805-2.012 10-1.341 3.196-3.19 6.003-5.551 8.42-2.36 2.419-5.165 4.352-8.415 5.8-3.25 1.448-6.77 2.172-10.56 2.172-3.972 0-7.583-.748-10.833-2.244-3.25-1.496-6.035-3.483-8.356-5.961a26.724 26.724 0 0 1-5.377-8.492C.632 33.12 0 29.863 0 26.536c0-3.48.67-6.823 2.011-10.027a26.932 26.932 0 0 1 5.59-8.48c2.386-2.448 5.205-4.398 8.454-5.85C19.305.726 22.825 0 26.616 0c3.972 0 7.563.774 10.774 2.323 3.21 1.548 5.983 3.576 8.318 6.084a27.185 27.185 0 0 1 5.397 8.516zm-22.15 24.425c.112.606.265 1.212.49 1.652H30c-.105-.805-.51-1.296-1.044-1.652zm-.663-35.18c.422.057.842.13 1.258.217A7.268 7.268 0 0 0 28.73 6h-.483l.045.168zm-3.688-.126A1.367 1.367 0 0 0 24.555 6c-.02 0-.058.02-.108.053l.157-.011z"/>
</svg>
